<?xml version="1.0" encoding="UTF-8"?>
<svg id="Camada_1" data-name="Camada 1" xmlns="http://www.w3.org/2000/svg" viewBox="0 0 1190.55 841.89">
  <defs>
    <style>
      .cls-1 {
        fill: #fff;
      }
    </style>
  </defs>
  <rect class="cls-1" x="72.78" y="597.12" width="17.79" height="105.57"/>
  <polygon class="cls-1" points="194.03 702.69 176.18 702.69 130.37 627.78 130.37 702.69 112.52 702.69 112.52 597.12 130.37 597.12 176.31 672.31 176.31 597.12 194.03 597.12 194.03 702.69"/>
  <path class="cls-1" d="M268.84,675.5c0-4.64-1.59-8.22-4.76-10.73-3.18-2.51-8.9-5.05-17.19-7.61-8.28-2.56-14.87-5.41-19.75-8.56-9.37-6.04-14.05-13.92-14.05-23.64,0-8.51,3.38-15.52,10.13-21.03,6.75-5.51,15.51-8.27,26.29-8.27,7.15,0,13.53,1.36,19.12,4.06,5.6,2.71,10,6.57,13.2,11.57,3.19,5,4.79,10.55,4.79,16.64h-17.79c0-5.51-1.68-9.83-5.05-12.94-3.36-3.12-8.17-4.68-14.43-4.68-5.83,0-10.37,1.29-13.59,3.84-3.22,2.56-4.83,6.14-4.83,10.73,0,3.86,1.74,7.1,5.22,9.67,3.49,2.59,9.22,5.11,17.22,7.55,8,2.45,14.42,5.23,19.27,8.34,4.84,3.12,8.4,6.7,10.65,10.73,2.26,4.04,3.39,8.76,3.39,14.18,0,8.8-3.28,15.79-9.85,20.99-6.56,5.2-15.47,7.8-26.72,7.8-7.43,0-14.27-1.42-20.5-4.24-6.24-2.82-11.08-6.73-14.54-11.71-3.46-4.97-5.19-10.78-5.19-17.4h17.85c0,5.99,1.94,10.64,5.79,13.92,3.86,3.29,9.39,4.93,16.58,4.93,6.22,0,10.88-1.3,14.01-3.89,3.13-2.59,4.69-6,4.69-10.26Z"/>
  <polygon class="cls-1" points="376.61 611.91 344.56 611.91 344.56 702.69 326.85 702.69 326.85 611.91 295.09 611.91 295.09 597.12 376.61 597.12 376.61 611.91"/>
  <rect class="cls-1" x="391.14" y="597.12" width="17.78" height="105.57"/>
  <polygon class="cls-1" points="503.08 611.91 471.04 611.91 471.04 702.69 453.32 702.69 453.32 611.91 421.56 611.91 421.56 597.12 503.08 597.12 503.08 611.91"/>
  <path class="cls-1" d="M591.71,597.12v70.55c0,11.22-3.49,20.1-10.48,26.65-6.98,6.55-16.29,9.83-27.91,9.83s-21.1-3.23-28.01-9.68c-6.92-6.45-10.38-15.41-10.38-26.87v-70.48h17.78v70.63c0,7.06,1.74,12.44,5.22,16.17,3.48,3.72,8.61,5.58,15.38,5.58,13.74,0,20.61-7.45,20.61-22.33v-70.05h17.79Z"/>
  <polygon class="cls-1" points="685.01 611.91 652.97 611.91 652.97 702.69 635.26 702.69 635.26 611.91 603.5 611.91 603.5 597.12 685.01 597.12 685.01 611.91"/>
  <path class="cls-1" d="M760.67,647.15c0-11.7-2.15-20.66-6.45-26.9-4.31-6.24-10.41-9.35-18.32-9.35s-13.74,3.1-18.1,9.32c-4.35,6.21-6.58,15-6.67,26.36v6.08c0,11.61,2.2,20.58,6.6,26.91,4.4,6.34,10.5,9.5,18.31,9.5s13.98-3.09,18.24-9.28c4.26-6.19,6.39-15.22,6.39-27.12v-5.51ZM778.53,652.65c0,10.35-1.74,19.43-5.22,27.23-3.49,7.81-8.46,13.8-14.93,17.99-6.47,4.19-13.92,6.27-22.34,6.27s-15.75-2.09-22.26-6.27c-6.52-4.18-11.55-10.14-15.1-17.87-3.56-7.74-5.35-16.65-5.4-26.76v-5.94c0-10.29,1.78-19.38,5.33-27.27,3.55-7.88,8.56-13.91,15.03-18.09,6.47-4.18,13.89-6.27,22.26-6.27s15.8,2.07,22.27,6.2c6.47,4.13,11.47,10.07,14.99,17.84,3.53,7.76,5.31,16.79,5.37,27.08v5.87Z"/>
  <path class="cls-1" d="M850.16,611.91v76.14h11.64c9.37,0,16.55-3.01,21.57-9.04,5.01-6.01,7.56-14.65,7.65-25.92v-5.87c0-11.46-2.42-20.21-7.27-26.25-4.85-6.05-11.88-9.06-21.1-9.06h-12.49ZM832.3,702.69v-105.57h30.35c9.08,0,17.14,2.08,24.17,6.24,7.04,4.16,12.48,10.05,16.34,17.68,3.86,7.64,5.78,16.39,5.78,26.26v5.3c0,10-1.94,18.8-5.83,26.39-3.88,7.59-9.41,13.45-16.58,17.56-7.17,4.1-15.4,6.15-24.66,6.15h-29.57Z"/>
  <path class="cls-1" d="M923,628.43l-8.75-5.58c4.23-6.33,6.43-13.03,6.56-20.09v-11.46h15.04v10.01c0,4.97-1.24,9.99-3.71,15.04-2.47,5.05-5.52,9.08-9.14,12.07Z"/>
  <path class="cls-1" d="M1007.91,647.15c0-11.7-2.15-20.66-6.45-26.9-4.31-6.24-10.41-9.35-18.32-9.35s-13.75,3.1-18.1,9.32c-4.36,6.21-6.58,15-6.67,26.36v6.08c0,11.61,2.2,20.58,6.6,26.91,4.4,6.34,10.5,9.5,18.32,9.5s13.98-3.09,18.24-9.28c4.26-6.19,6.39-15.22,6.39-27.12v-5.51ZM1025.76,652.65c0,10.35-1.74,19.43-5.22,27.23-3.48,7.81-8.46,13.8-14.92,17.99-6.48,4.19-13.92,6.27-22.34,6.27s-15.75-2.09-22.26-6.27c-6.52-4.18-11.56-10.14-15.1-17.87-3.56-7.74-5.35-16.65-5.4-26.76v-5.94c0-10.29,1.78-19.38,5.33-27.27,3.56-7.88,8.57-13.91,15.04-18.09,6.47-4.18,13.89-6.27,22.26-6.27s15.8,2.07,22.26,6.2c6.48,4.13,11.47,10.07,15,17.84,3.53,7.76,5.31,16.79,5.36,27.08v5.87Z"/>
  <path class="cls-1" d="M86.21,782.33h16.65c4.93,0,8.69-1.19,11.29-3.57,2.59-2.38,3.88-5.82,3.88-10.33s-1.31-7.97-3.95-10.61c-2.63-2.65-6.24-4-10.84-4.08h-17.03v28.59ZM86.21,793.81v30.39h-13.86v-81.94h30.51c8.91,0,15.99,2.38,21.22,7.16,5.24,4.77,7.86,11.08,7.86,18.93s-2.56,14.29-7.69,18.76c-5.14,4.48-12.32,6.7-21.56,6.7h-16.49Z"/>
  <polygon class="cls-1" points="190.66 787.62 157.91 787.62 157.91 812.84 196.19 812.84 196.19 824.2 144.05 824.2 144.05 742.26 195.81 742.26 195.81 753.74 157.91 753.74 157.91 776.37 190.66 776.37 190.66 787.62"/>
  <path class="cls-1" d="M249.16,803.1c0-3.6-1.23-6.38-3.7-8.32-2.47-1.95-6.91-3.92-13.33-5.91-6.43-1.99-11.54-4.21-15.34-6.64-7.27-4.69-10.9-10.81-10.9-18.36,0-6.6,2.62-12.04,7.86-16.31,5.24-4.28,12.04-6.41,20.4-6.41,5.55,0,10.5,1.05,14.84,3.15,4.34,2.1,7.76,5.09,10.24,8.98,2.48,3.88,3.72,8.19,3.72,12.92h-13.8c0-4.29-1.31-7.63-3.92-10.05-2.61-2.42-6.35-3.63-11.2-3.63-4.53,0-8.04.99-10.54,2.98-2.5,1.99-3.75,4.77-3.75,8.33,0,3,1.35,5.51,4.05,7.51,2.7,2.01,7.16,3.96,13.36,5.85,6.21,1.9,11.19,4.05,14.95,6.48,3.76,2.42,6.52,5.19,8.27,8.32,1.75,3.14,2.63,6.8,2.63,11.01,0,6.83-2.55,12.25-7.64,16.29-5.09,4.03-12.01,6.06-20.73,6.06-5.77,0-11.07-1.1-15.91-3.3-4.84-2.2-8.6-5.22-11.28-9.09-2.69-3.86-4.03-8.37-4.03-13.5h13.86c0,4.65,1.49,8.26,4.49,10.81,2.99,2.55,7.29,3.82,12.88,3.82,4.82,0,8.44-1,10.87-3.01,2.43-2.01,3.64-4.66,3.64-7.97Z"/>
  <path class="cls-1" d="M324.64,781.1c0-9.24-1.68-16.24-5.04-21-3.36-4.76-8.1-7.14-14.24-7.14s-10.62,2.42-14,7.23c-3.38,4.83-5.1,11.62-5.18,20.4v4.78c0,8.86,1.69,15.78,5.07,20.77,3.38,4.99,8.12,7.48,14.22,7.48s10.91-2.39,14.22-7.2c3.3-4.8,4.95-11.82,4.95-21.05v-4.27ZM338.55,785.38c0,7.76-1.2,14.49-3.58,20.18-2.39,5.68-5.74,10.19-10.05,13.54l13.69,10.97-8.98,8.33-16.98-13.79c-2.23.48-4.62.74-7.17.74-6.43,0-12.17-1.62-17.22-4.87-5.06-3.24-8.96-7.87-11.73-13.88-2.76-6-4.15-12.92-4.19-20.77v-4.62c0-7.99,1.38-15.04,4.14-21.15,2.76-6.13,6.65-10.81,11.67-14.05,5.03-3.24,10.77-4.86,17.23-4.86s12.37,1.6,17.39,4.81c5.02,3.2,8.9,7.82,11.65,13.84,2.73,6.02,4.12,13.03,4.16,21.03v4.55Z"/>
  <path class="cls-1" d="M410.97,742.26v54.76c0,8.7-2.71,15.6-8.14,20.69-5.42,5.08-12.64,7.62-21.66,7.62s-16.38-2.51-21.74-7.52c-5.37-5.01-8.05-11.96-8.05-20.85v-54.7h13.81v54.81c0,5.48,1.35,9.66,4.05,12.55,2.7,2.89,6.68,4.33,11.94,4.33,10.66,0,15.99-5.77,15.99-17.32v-54.37h13.81Z"/>
  <rect class="cls-1" x="426.58" y="742.26" width="13.81" height="81.94"/>
  <path class="cls-1" d="M499.1,803.1c0-3.6-1.23-6.38-3.7-8.32-2.46-1.95-6.91-3.92-13.33-5.91-6.43-1.99-11.54-4.21-15.34-6.64-7.27-4.69-10.9-10.81-10.9-18.36,0-6.6,2.62-12.04,7.86-16.31,5.24-4.28,12.04-6.41,20.4-6.41,5.55,0,10.5,1.05,14.84,3.15,4.34,2.1,7.75,5.09,10.24,8.98,2.48,3.88,3.72,8.19,3.72,12.92h-13.81c0-4.29-1.3-7.63-3.91-10.05-2.61-2.42-6.35-3.63-11.2-3.63-4.53,0-8.05.99-10.54,2.98-2.51,1.99-3.75,4.77-3.75,8.33,0,3,1.35,5.51,4.05,7.51,2.71,2.01,7.16,3.96,13.37,5.85,6.21,1.9,11.19,4.05,14.95,6.48,3.76,2.42,6.52,5.19,8.27,8.32,1.75,3.14,2.63,6.8,2.63,11.01,0,6.83-2.54,12.25-7.64,16.29-5.09,4.03-12.01,6.06-20.74,6.06-5.76,0-11.07-1.1-15.91-3.3-4.83-2.2-8.6-5.22-11.28-9.09-2.68-3.86-4.02-8.37-4.02-13.5h13.85c0,4.65,1.5,8.26,4.49,10.81,2.99,2.55,7.29,3.82,12.87,3.82,4.83,0,8.44-1,10.88-3.01,2.43-2.01,3.64-4.66,3.64-7.97Z"/>
  <path class="cls-1" d="M542.76,793.65h23.11l-11.56-34-11.56,34ZM569.76,805.13h-30.89l-6.46,19.08h-14.41l30.12-81.94h12.44l30.18,81.94h-14.46l-6.52-19.08Z"/>
  <polygon class="cls-1" points="674.32 787.62 641.57 787.62 641.57 812.84 679.85 812.84 679.85 824.2 627.71 824.2 627.71 742.26 679.47 742.26 679.47 753.74 641.57 753.74 641.57 776.37 674.32 776.37 674.32 787.62"/>
  <polygon class="cls-1" points="765.69 787.62 732.94 787.62 732.94 812.84 771.22 812.84 771.22 824.2 719.08 824.2 719.08 742.26 770.84 742.26 770.84 753.74 732.94 753.74 732.94 776.37 765.69 776.37 765.69 787.62"/>
  <polygon class="cls-1" points="845.77 824.2 831.91 824.2 796.36 766.07 796.36 824.2 782.5 824.2 782.5 742.26 796.36 742.26 832.02 800.63 832.02 742.26 845.77 742.26 845.77 824.2"/>
  <path class="cls-1" d="M903.83,803.1c0-3.6-1.23-6.38-3.7-8.32-2.46-1.95-6.91-3.92-13.33-5.91-6.43-1.99-11.54-4.21-15.34-6.64-7.27-4.69-10.91-10.81-10.91-18.36,0-6.6,2.63-12.04,7.86-16.31,5.24-4.28,12.04-6.41,20.4-6.41,5.55,0,10.5,1.05,14.84,3.15,4.34,2.1,7.76,5.09,10.24,8.98,2.48,3.88,3.72,8.19,3.72,12.92h-13.8c0-4.29-1.31-7.63-3.92-10.05-2.61-2.42-6.35-3.63-11.2-3.63-4.53,0-8.04.99-10.54,2.98-2.5,1.99-3.75,4.77-3.75,8.33,0,3,1.35,5.51,4.05,7.51,2.7,2.01,7.16,3.96,13.37,5.85,6.2,1.9,11.19,4.05,14.95,6.48,3.75,2.42,6.52,5.19,8.27,8.32,1.75,3.14,2.63,6.8,2.63,11.01,0,6.83-2.55,12.25-7.64,16.29-5.09,4.03-12.01,6.06-20.73,6.06-5.77,0-11.07-1.1-15.91-3.3-4.84-2.2-8.6-5.22-11.28-9.09-2.69-3.86-4.03-8.37-4.03-13.5h13.86c0,4.65,1.5,8.26,4.49,10.81,2.99,2.55,7.28,3.82,12.87,3.82,4.82,0,8.44-1,10.87-3.01,2.43-2.01,3.64-4.66,3.64-7.97Z"/>
  <rect class="cls-1" x="930.67" y="742.26" width="13.8" height="81.94"/>
  <polygon class="cls-1" points="1024.77 824.2 1010.92 824.2 975.37 766.07 975.37 824.2 961.51 824.2 961.51 742.26 975.37 742.26 1011.03 800.63 1011.03 742.26 1024.77 742.26 1024.77 824.2"/>
  <path class="cls-1" d="M1055.77,647.29h18.35c6.02,0,10.73-1.56,14.12-4.67,3.38-3.13,5.08-7.39,5.08-12.81s-1.57-10.03-4.7-13.12c-3.13-3.09-7.8-4.69-14.01-4.78h-18.84v35.38ZM1075.67,662.08h-19.9v40.61h-17.86v-105.57h36.14c11.86,0,21.01,2.73,27.45,8.2,6.44,5.47,9.67,13.38,9.67,23.73,0,7.07-1.66,12.98-4.98,17.74-3.32,4.77-7.94,8.44-13.87,11l23.08,43.97v.93h-19.13l-20.61-40.61Z"/>
  <path class="cls-1" d="M1090.94,781.1c0-9.08-1.67-16.05-5.01-20.89-3.34-4.84-8.08-7.26-14.22-7.26s-10.67,2.42-14.05,7.23c-3.37,4.83-5.1,11.64-5.17,20.46v4.73c0,9,1.7,15.96,5.12,20.88,3.41,4.92,8.15,7.37,14.21,7.37s10.86-2.39,14.16-7.2c3.3-4.8,4.96-11.82,4.96-21.05v-4.27ZM1104.8,785.38c0,8.03-1.35,15.08-4.05,21.13-2.7,6.06-6.56,10.72-11.58,13.96-5.02,3.25-10.8,4.87-17.34,4.87s-12.22-1.62-17.28-4.87c-5.06-3.24-8.96-7.87-11.72-13.88-2.76-6-4.16-12.92-4.19-20.77v-4.62c0-7.99,1.37-15.04,4.14-21.15,2.76-6.13,6.65-10.81,11.67-14.05,5.02-3.24,10.78-4.86,17.28-4.86s12.27,1.6,17.29,4.81c5.02,3.2,8.9,7.82,11.64,13.84,2.74,6.02,4.13,13.03,4.16,21.03v4.55Z"/>
  <rect class="cls-1" x="67.15" y="3.5" width="64.19" height="341.14"/>
  <path class="cls-1" d="M999.36,6.29c42.94,0,72.01,8.64,87.21,25.85,13.35,15.39,19.99,40.56,19.99,75.5,0,37.9-4.87,62.77-14.68,74.68-8.7,10.99-23.39,18.42-44.12,22.29v1.36c19.4,1.9,34.16,8.72,44.12,20.4,7.97,13.12,11.95,32.44,11.95,57.92v63.15h-64.04v-51.4c0-11.82-.59-21.68-1.7-29.49-1.11-7.81-3.91-14.33-8.49-19.56-4.5-5.23-9.89-8.56-16.01-10.08-6.2-1.52-14.39-2.28-24.72-2.28h-88.99v112.8h-63.74V6.29h163.2ZM989.77,62.32h-89.87v116.3h91.71c11.06,0,19.62-.91,25.6-2.8,5.98-1.82,11.29-5.23,16.01-10.31,6.2-8.18,9.29-23.96,9.29-47.23,0-21.46-2.58-36.09-7.6-43.74-4.14-5.16-9.74-8.49-16.9-10.01-7.16-1.44-16.6-2.2-28.26-2.2Z"/>
  <path class="cls-1" d="M400.47,223.32c0,23.28-3.1,39.05-9.29,47.23-4.73,5.08-10.04,8.49-16.01,10.31-5.98,1.89-14.54,2.8-25.6,2.8h-91.71V59.52h89.87c11.66,0,21.1.76,28.26,2.2,7.15,1.52,12.76,4.85,16.9,10.01,5.01,7.66,7.6,22.29,7.6,43.75v107.85ZM444.52,29.35c-15.2-17.21-44.27-25.85-87.21-25.85h-163.21v341.14h163.21c42.94,0,72.01-8.64,87.21-25.85,13.35-15.39,19.99-40.56,19.99-75.51V104.86c0-34.95-6.64-60.12-19.99-75.51Z"/>
  <rect class="cls-1" x="67.15" y="452.09" width="1056.25" height="44.58"/>
  <path class="cls-1" d="M499.52,177.86c0-145.31,25.76-174.37,151.25-174.37s151.25,25.1,151.25,172.39-25.76,174.37-151.25,174.37-151.25-25.1-151.25-172.39ZM576.8,179.18c0,104.36,6.61,111.62,73.97,111.62s73.98-5.94,73.98-116.25c0-103.7-6.61-112.28-73.98-112.28s-73.97,5.94-73.97,116.91Z"/>
</svg>